<svg xmlns="http://www.w3.org/2000/svg" viewBox="0 0 155.139 155.139" width="512" height="512"><g fill="#008282"><path d="M106.628 32.388c-2.596-.865-5.645-1.277-9.064-1.277-5.388 0-9.535 1.165-12.328 3.456-1.66 1.313-3.21 3.544-4.714 6.647h34.232c-.363-4.266-3.048-7.214-8.126-8.825zM41.726 51.816c3.264 1.396 6.683 2.082 10.257 2.082 4.296 0 7.614-.806 10.048-2.47 2.435-1.64 4.142-3.873 5.08-6.647H36.552c.203 3.283 1.915 5.634 5.173 7.036z"/><path d="M77.57 0C36.236 0 2.78 19.25 2.78 43.027s33.457 43.05 74.79 43.05 74.79-19.272 74.79-43.05S118.9 0 77.57 0zm59.405 44.78h-12.638c-.83 7.24-5.287 12.185-13.42 14.78-4.397 1.433-10.31 2.143-17.768 2.143v-6.64c5.954-.216 10.256-.747 13.007-1.612 4.917-1.58 7.667-4.468 8.288-8.67h-35.48c-1.753 5.395-4.76 9.417-8.908 11.977-4.195 2.602-9.947 3.873-17.298 3.873-6.63 0-12.585-1.366-17.872-4.17-5.28-2.77-7.978-6.678-8.08-11.684h-8.65v-3.574H26.7c.627-4.947 3.162-8.76 7.614-11.438 4.505-2.655 10.412-4.028 17.763-4.177v6.558c-3.313.18-6.165.686-8.546 1.55-4.35 1.582-6.683 4.082-6.886 7.507h31.696c2.852-5.782 5.49-9.714 7.924-11.802 4.093-3.365 10.144-5.036 18.127-5.036 11.552 0 19.738 2.148 24.6 6.468 2.692 2.41 4.452 5.87 5.34 10.37h12.64v3.58z"/><path d="M77.57 91.836c-37.932 0-69.15-16.254-74.044-37.293-.442 1.886-.746 3.8-.746 5.758 0 23.78 33.456 43.052 74.79 43.052s74.788-19.273 74.788-43.05c0-1.958-.31-3.868-.746-5.76-4.893 21.04-36.11 37.294-74.043 37.294z"/><path d="M77.57 109.098c-37.932 0-69.15-16.254-74.044-37.3-.442 1.887-.746 3.802-.746 5.753 0 23.78 33.456 43.058 74.79 43.058s74.788-19.273 74.788-43.057c0-1.956-.31-3.866-.746-5.75-4.893 21.05-36.11 37.298-74.043 37.298z"/><path d="M77.57 126.366c-37.932 0-69.15-16.254-74.044-37.3-.442 1.887-.746 3.808-.746 5.753 0 23.777 33.456 43.05 74.79 43.05s74.788-19.267 74.788-43.05c0-1.958-.31-3.862-.746-5.753-4.893 21.046-36.11 37.3-74.043 37.3z"/><path d="M77.57 143.623c-37.932 0-69.15-16.248-74.044-37.293-.442 1.88-.746 3.8-.746 5.758 0 23.778 33.456 43.05 74.79 43.05s74.788-19.272 74.788-43.05c0-1.957-.31-3.867-.746-5.758-4.893 21.05-36.11 37.293-74.043 37.293z"/></g></svg>