<svg width="134" height="40" viewBox="0 0 134 40" xmlns="http://www.w3.org/2000/svg"><title>ico_googleplay</title><defs><linearGradient x1="60.031%" y1="91.839%" x2="33.441%" y2="-59.309%" id="a"><stop stop-color="#D6FFA1" offset="0%"/><stop stop-color="#93E2A7" offset="32.6%"/><stop stop-color="#00A3B5" offset="100%"/></linearGradient><linearGradient x1="-31.993%" y1="-128.722%" x2="80.465%" y2="114.085%" id="b"><stop stop-color="#FF177B" offset="0%"/><stop stop-color="#FFA976" offset="67.2%"/><stop stop-color="#FFEC73" offset="100%"/></linearGradient><linearGradient x1="50.814%" y1="74.695%" x2="-.083%" y2="-29.489%" id="c"><stop stop-color="#63FFD4" offset="0%"/><stop stop-color="#32A0BA" offset="48.5%"/><stop stop-color="#1262A9" offset="83.5%"/><stop stop-color="#064AA2" offset="100%"/></linearGradient><linearGradient x1="119.227%" y1="35.531%" x2="-23.067%" y2="61.025%" id="d"><stop stop-color="#FF4521" offset="0%"/><stop stop-color="#D43E65" offset="34.1%"/><stop stop-color="#9F36B9" offset="79.3%"/><stop stop-color="#8A33DB" offset="100%"/></linearGradient></defs><g fill="none" fill-rule="evenodd"><path d="M129.947 39.96H4.697C2.092 39.96 0 37.87 0 35.277V4.724C0 2.132 2.092.026 4.697.026h125.25c2.592 0 4.79 2.092 4.79 4.698v30.434c0 2.71-2.198 4.803-4.79 4.803z"/><path d="M133.737 35.276c0 2.092-1.698 3.79-3.79 3.79H4.697c-2.092 0-3.79-1.698-3.79-3.79V4.724c0-2.092 1.698-3.79 3.79-3.79h125.25c2.092 0 3.79 1.698 3.79 3.79v30.552z" fill="#263238"/><path d="M89.763 28.895l-.88.83c-.2.104-.41.236-.607.328-.605.276-1.237.342-1.79.342-.59 0-1.512-.04-2.447-.724-1.303-.92-1.882-2.5-1.882-3.88 0-2.856 2.316-4.25 4.21-4.25.658 0 1.343.17 1.895.513.92.605 1.158 1.394 1.29 1.815l-4.33 1.75-1.42.106c.46 2.342 2.04 3.697 3.79 3.697.868 0 1.525-.288 2.118-.578.027.04.145-.026.053.053zm-2.605-4.645c.355-.132.54-.237.54-.5 0-.737-.83-1.58-1.83-1.58-.736 0-2.118.567-2.118 2.554 0 .315.04.644.053.973l3.355-1.447zm-6.434 4.513c0 .71.13.83.737.882.316.04.632.052.935.092l-.684.408h-3.236c.42-.553.5-.606.5-.974v-.407L78.96 17.83h-1.434l1.382-.66h2.63c-.564.33-.735.527-.814 1.172v10.42zm-5.013-6.29c.422.343 1.303 1.08 1.303 2.488 0 1.356-.763 2-1.54 2.606-.236.237-.512.5-.512.895 0 .408.277.632.474.79l.658.513c.803.684 1.54 1.303 1.54 2.58 0 1.723-1.67 3.473-4.843 3.473-2.658 0-3.948-1.263-3.948-2.632 0-.658.33-1.605 1.42-2.237 1.146-.697 2.685-.79 3.514-.842-.263-.33-.552-.684-.552-1.25 0-.316.092-.5.184-.71-.197.013-.408.04-.592.04-1.948 0-3.053-1.46-3.053-2.896 0-.843.382-1.79 1.184-2.46 1.053-.87 2.303-1.014 3.29-1.014h3.79l-1.185.67h-1.13v-.012zm-1.315 8.16c-.145-.015-.237-.015-.42-.015-.172 0-1.16.04-1.936.29-.408.145-1.58.592-1.58 1.895 0 1.302 1.277 2.236 3.237 2.236 1.764 0 2.698-.843 2.698-1.987.013-.935-.592-1.42-2-2.42zm.54-3.488c.42-.42.46-1.013.46-1.342 0-1.316-.79-3.382-2.316-3.382-.475 0-1 .238-1.29.606-.316.382-.408.882-.408 1.356 0 1.236.723 3.276 2.302 3.276.46 0 .96-.224 1.25-.513zm-10.632 3.223c-2.92 0-4.487-2.276-4.487-4.342 0-2.408 1.96-4.473 4.763-4.473 2.696 0 4.394 2.118 4.394 4.342 0 2.184-1.67 4.473-4.67 4.473zm2.302-1.486c.448-.593.553-1.33.553-2.04 0-1.618-.776-4.71-3.053-4.71-.605 0-1.223.236-1.658.618-.723.645-.842 1.447-.842 2.25 0 1.816.895 4.816 3.132 4.816.71 0 1.447-.342 1.868-.934zm-12.092 1.486c-2.92 0-4.487-2.276-4.487-4.342 0-2.408 1.96-4.473 4.763-4.473 2.697 0 4.394 2.118 4.394 4.342 0 2.184-1.67 4.473-4.67 4.473zm2.303-1.486c.447-.593.552-1.33.552-2.04 0-1.618-.776-4.71-3.052-4.71-.605 0-1.21.236-1.658.618-.724.645-.842 1.447-.842 2.25 0 1.816.908 4.816 3.13 4.816.712 0 1.45-.342 1.87-.934zm-7.948.855l-2.46.566c-1 .158-1.895.302-2.842.302-4.75 0-6.566-3.5-6.566-6.237 0-3.342 2.566-6.447 6.96-6.447.935 0 1.83.133 2.645.356 1.29.37 1.895.816 2.277 1.08l-1.435 1.355-.605.132.434-.684c-.58-.566-1.658-1.62-3.684-1.62-2.724 0-4.776 2.067-4.776 5.08 0 3.237 2.342 6.29 6.105 6.29 1.106 0 1.672-.224 2.185-.434v-2.777l-2.605.145 1.382-.737h3.657l-.448.434c-.118.105-.13.13-.17.276-.014.158-.04.658-.04.83v2.09h-.014zm46.198-.763v4.684h-.934v-11.92h.934v1.354c.605-.88 1.71-1.58 3-1.58 2.302 0 3.855 1.75 3.855 4.514 0 2.75-1.552 4.54-3.854 4.54-1.21.026-2.303-.605-3-1.592zm5.855-2.92c0-2.093-1.09-3.686-3.012-3.686-1.197 0-2.342.948-2.842 1.764v3.815c.5.83 1.645 1.803 2.842 1.803 1.934 0 3.013-1.605 3.013-3.697zm2.277 4.314v-11.92h.935v11.92h-.935zm11.37 2.527c.196.092.538.144.75.144.565 0 .96-.237 1.315-1.053l.684-1.54-3.658-8.697h1.04l3.144 7.54 3.12-7.54h1.05l-4.473 10.526c-.46 1.08-1.198 1.606-2.198 1.606-.303 0-.697-.053-.934-.132l.158-.855zm-2.725-2.553c-.066-.303-.105-.566-.145-.776-.026-.224-.04-.448-.04-.67-.315.472-.775.854-1.34 1.17-.58.302-1.133.46-1.883.46-.908 0-1.605-.223-2.105-.67-.5-.448-.75-1.067-.75-1.843s.367-1.395 1.09-1.88c.725-.488 1.672-.725 2.83-.725h2.17v-1.066c0-.618-.21-1.105-.63-1.46-.422-.356-1.014-.527-1.777-.527-.697 0-1.276.158-1.697.474-.434.328-.645.723-.645 1.21h-.946l-.013-.053c-.04-.658.264-1.224.895-1.71.632-.488 1.46-.738 2.474-.738 1.012 0 1.828.25 2.446.736.62.487.935 1.185.935 2.092v4.25c0 .303.014.606.053.895.04.29.105.58.184.855h-1.105v-.026zm-3.303-.67c.79 0 1.355-.172 1.934-.527.58-.342.973-.803 1.17-1.342v-1.658h-2.17c-.83 0-1.527.184-2.066.552-.54.37-.816.816-.816 1.342 0 .486.17.88.526 1.184.343.29.816.447 1.42.447z" fill="#FFF"/><path d="M23.355 22.408l3.237-3.25-3.237 3.25-10.342-10.342 10.342 10.342L13 32.763l10.355-10.355 3.25 3.25"/><path d="M26.592 19.158l-12.618-6.934c-.356-.198-.685-.237-.96-.158l10.34 10.342 3.238-3.25z" fill="url(#a)"/><path d="M26.605 25.658l4.303-2.37c.868-.485.868-1.262 0-1.75l-4.33-2.38-3.236 3.237 3.263 3.263z" fill="url(#b)"/><path d="M13.013 12.066c-.38.118-.63.513-.63 1.092v18.5c0 .58.235.96.617 1.092l10.355-10.355-10.342-10.33z" fill="url(#c)"/><path d="M13 32.763c.263.092.605.053.974-.158l12.63-6.947-3.25-3.25L13 32.763z" fill="url(#d)"/><path d="M36.96 10.263c0-1.83 1.356-3.013 3.053-3.013 1.132 0 1.882.54 2.342 1.197l-.83.474c-.314-.433-.867-.775-1.512-.775-1.145 0-2 .868-2 2.105 0 1.21.855 2.105 2 2.105.592 0 1.12-.276 1.382-.526v-.896h-1.75v-.895h2.75v2.17c-.566.632-1.382 1.066-2.395 1.066-1.67 0-3.04-1.197-3.04-3.013zm6.71 2.895V7.342h3.988v.895h-2.96v1.5h2.907v.895h-2.908v1.618h2.96v.895h-3.986v.013zm6.804 0v-4.92H48.71V7.34h4.54v.895h-1.763v4.92h-1.013zm6.33 0V7.342h1.025v5.816h-1.027zm3.867 0v-4.92H58.91V7.34h4.54v.895h-1.764v4.92H60.67zm6.08-2.895c0-1.737 1.224-3.013 2.974-3.013 1.737 0 2.973 1.276 2.973 3.013 0 1.737-1.236 3.013-2.973 3.013-1.75-.013-2.974-1.29-2.974-3.013zm4.895 0c0-1.197-.763-2.105-1.92-2.105-1.172 0-1.936.895-1.936 2.105 0 1.198.75 2.105 1.934 2.105 1.17-.013 1.92-.92 1.92-2.105zm6.302 2.895L74.907 9v4.158h-1.025V7.342h1.052l2.974 4.026V7.342h1.026v5.816h-.987z" fill="#FFF"/></g></svg>