<svg xmlns="http://www.w3.org/2000/svg" width="135" height="40" viewBox="0 0 135 40"><path fill="#A6A6A6" d="M130.197 40H4.73C2.12 40 0 37.872 0 35.267V4.727C0 2.12 2.122 0 4.73 0h125.467C132.803 0 135 2.12 135 4.726v30.54c0 2.606-2.197 4.734-4.803 4.734z"/><path d="M134.032 35.268c0 2.116-1.714 3.83-3.834 3.83H4.728c-2.118 0-3.838-1.714-3.838-3.83V4.725C.89 2.61 2.61.89 4.73.89h125.467c2.12 0 3.834 1.72 3.834 3.835l.002 30.543z"/><g fill="#FFF"><path d="M30.128 19.784c-.03-3.223 2.64-4.79 2.76-4.864-1.51-2.203-3.852-2.504-4.675-2.528-1.967-.207-3.875 1.177-4.877 1.177-1.022 0-2.565-1.158-4.228-1.124-2.14.033-4.142 1.272-5.24 3.196-2.266 3.923-.576 9.688 1.595 12.86 1.086 1.552 2.355 3.286 4.016 3.225 1.624-.067 2.23-1.036 4.192-1.036 1.943 0 2.513 1.037 4.207.998 1.743-.028 2.84-1.56 3.89-3.127 1.254-1.78 1.758-3.532 1.778-3.622-.04-.014-3.387-1.29-3.42-5.154zM26.928 10.306c.874-1.093 1.472-2.58 1.306-4.09-1.265.057-2.847.876-3.758 1.945-.806.943-1.526 2.487-1.34 3.94 1.42.105 2.88-.718 3.792-1.794z"/></g><g fill="#FFF"><path d="M53.645 31.504h-2.27l-1.245-3.91h-4.324l-1.185 3.91h-2.21l4.284-13.308h2.646l4.305 13.308zm-3.89-5.55L48.63 22.48c-.12-.355-.342-1.19-.67-2.507h-.04c-.132.566-.343 1.402-.633 2.507l-1.105 3.475h3.573zM64.662 26.588c0 1.632-.44 2.922-1.323 3.87-.79.842-1.772 1.263-2.943 1.263-1.264 0-2.172-.453-2.725-1.36h-.04v5.054H55.5V25.067c0-1.026-.027-2.08-.08-3.16h1.876l.12 1.522h.04c.71-1.147 1.79-1.72 3.237-1.72 1.132 0 2.077.448 2.833 1.343.758.896 1.136 2.074 1.136 3.535zm-2.172.078c0-.934-.21-1.704-.632-2.31-.46-.632-1.08-.948-1.856-.948-.526 0-1.004.176-1.43.523-.43.35-.71.808-.84 1.374-.066.264-.1.48-.1.65v1.6c0 .698.215 1.287.643 1.768s.984.72 1.668.72c.803 0 1.428-.31 1.875-.927.448-.62.672-1.435.672-2.45zM75.7 26.588c0 1.632-.442 2.922-1.325 3.87-.79.842-1.77 1.263-2.94 1.263-1.265 0-2.173-.453-2.725-1.36h-.04v5.054h-2.132V25.067c0-1.026-.027-2.08-.08-3.16h1.876l.12 1.522h.04c.71-1.147 1.788-1.72 3.237-1.72 1.132 0 2.077.448 2.835 1.343.755.896 1.134 2.074 1.134 3.535zm-2.173.078c0-.934-.21-1.704-.633-2.31-.46-.632-1.078-.948-1.855-.948-.528 0-1.005.176-1.433.523-.428.35-.707.808-.838 1.374-.066.264-.1.48-.1.65v1.6c0 .698.214 1.287.64 1.768.428.48.984.72 1.67.72.803 0 1.428-.31 1.875-.927.448-.62.672-1.435.672-2.45zM88.04 27.772c0 1.132-.394 2.053-1.183 2.764-.867.777-2.074 1.165-3.625 1.165-1.432 0-2.58-.275-3.45-.828l.495-1.777c.936.566 1.963.85 3.082.85.802 0 1.427-.182 1.876-.544.447-.36.67-.847.67-1.453 0-.54-.184-.995-.553-1.364-.367-.37-.98-.712-1.836-1.03-2.33-.868-3.494-2.14-3.494-3.815 0-1.094.408-1.99 1.225-2.69.814-.698 1.9-1.047 3.258-1.047 1.21 0 2.217.212 3.02.633l-.533 1.738c-.75-.407-1.598-.61-2.547-.61-.75 0-1.336.184-1.756.552-.355.33-.533.73-.533 1.205 0 .526.203.96.61 1.303.356.316 1 .658 1.937 1.027 1.145.46 1.986 1 2.527 1.618.54.616.81 1.387.81 2.307zM95.088 23.508h-2.35v4.66c0 1.184.414 1.776 1.244 1.776.38 0 .697-.033.947-.1l.058 1.62c-.42.157-.973.236-1.658.236-.842 0-1.5-.257-1.975-.77-.473-.514-.71-1.376-.71-2.587v-4.837h-1.4v-1.6h1.4V20.15l2.093-.633v2.39h2.35v1.6zM105.69 26.627c0 1.475-.42 2.686-1.263 3.633-.883.975-2.055 1.46-3.516 1.46-1.407 0-2.528-.466-3.364-1.4s-1.254-2.113-1.254-3.534c0-1.487.43-2.705 1.293-3.652.86-.948 2.023-1.422 3.484-1.422 1.407 0 2.54.467 3.395 1.402.818.907 1.226 2.078 1.226 3.513zm-2.21.07c0-.886-.19-1.645-.573-2.278-.447-.767-1.086-1.15-1.914-1.15-.857 0-1.508.384-1.955 1.15-.383.633-.572 1.404-.572 2.316 0 .885.19 1.644.572 2.276.46.766 1.105 1.148 1.936 1.148.814 0 1.453-.39 1.914-1.168.393-.645.59-1.412.59-2.296zM112.62 23.783c-.21-.04-.435-.06-.67-.06-.75 0-1.33.284-1.74.85-.354.5-.532 1.133-.532 1.896v5.034h-2.13l.02-6.574c0-1.106-.028-2.113-.08-3.02h1.856l.078 1.835h.06c.224-.63.58-1.14 1.065-1.52.475-.343.988-.514 1.54-.514.198 0 .376.015.534.04v2.033zM122.156 26.252c0 .382-.025.704-.078.967h-6.396c.025.947.334 1.672.928 2.172.54.447 1.236.67 2.092.67.947 0 1.81-.15 2.588-.453l.334 1.48c-.908.395-1.98.592-3.217.592-1.488 0-2.656-.438-3.506-1.313-.847-.876-1.272-2.05-1.272-3.525 0-1.447.395-2.652 1.186-3.613.828-1.026 1.947-1.54 3.355-1.54 1.382 0 2.43.514 3.14 1.54.563.815.846 1.823.846 3.02zm-2.033-.553c.014-.633-.125-1.18-.414-1.64-.37-.593-.937-.89-1.7-.89-.697 0-1.264.29-1.697.87-.355.46-.566 1.014-.63 1.658h4.44z"/></g><g fill="#FFF"><path d="M48.236 7.077l-.233.837c-.362-.168-.775-.252-1.24-.252-.706 0-1.266.214-1.68.643-.44.448-.66 1.075-.66 1.88 0 .77.205 1.377.612 1.815.407.438.973.657 1.697.657.51 0 .94-.08 1.29-.243l.185.828c-.39.186-.94.278-1.66.278-.98 0-1.76-.288-2.337-.863-.595-.595-.892-1.403-.892-2.425 0-1.047.323-1.888.97-2.522.627-.607 1.438-.912 2.435-.912.658 0 1.163.093 1.513.28zM54.027 11.037c0 .725-.207 1.32-.62 1.785-.435.48-1.01.718-1.728.718-.693 0-1.244-.23-1.655-.69-.41-.458-.615-1.037-.615-1.735 0-.73.21-1.33.635-1.794s.994-.697 1.712-.697c.692 0 1.248.23 1.67.688.4.447.6 1.023.6 1.727zm-1.087.034c0-.434-.094-.807-.28-1.118-.22-.376-.534-.564-.94-.564-.422 0-.742.188-.962.564-.188.31-.28.69-.28 1.138 0 .435.093.808.28 1.12.227.375.543.563.95.563.4 0 .715-.19.94-.574.195-.318.292-.694.292-1.13zM59.662 13.433h-1.048v-2.7c0-.832-.316-1.248-.95-1.248-.31 0-.562.114-.757.343-.193.23-.29.5-.29.808v2.796h-1.05v-3.366c0-.414-.012-.863-.037-1.35h.92l.05.74h.03c.12-.23.303-.418.542-.57.284-.175.602-.264.95-.264.44 0 .806.142 1.097.427.36.348.542.87.542 1.56v2.823zM64.386 12.08c0 .437-.16.79-.484 1.054s-.77.397-1.34.397c-.536 0-.99-.106-1.366-.32l.223-.775c.36.22.746.33 1.153.33.537 0 .805-.197.805-.592 0-.174-.058-.318-.174-.432-.117-.112-.324-.224-.62-.333-.842-.31-1.262-.763-1.262-1.358 0-.408.155-.748.465-1.02.31-.27.722-.407 1.232-.407.465 0 .862.095 1.192.285l-.223.752c-.305-.18-.625-.27-.96-.27-.22 0-.393.05-.516.154-.122.104-.184.235-.184.397 0 .162.064.294.193.397.11.097.323.203.64.32.816.31 1.223.783 1.223 1.422zM66.996 13.433h-1.048V8.72h1.048v4.713zm.902-6.693l-1.174 1.406h-.728l.834-1.406h1.068zM72.99 8.72c-.027.38-.04.827-.04 1.338v2.696c0 1.015-.226 1.727-.68 2.134-.413.375-.995.562-1.745.562-.652 0-1.18-.123-1.58-.37l.242-.804c.395.24.84.36 1.338.36.926 0 1.387-.5 1.387-1.495v-.455h-.02c-.29.48-.752.718-1.387.718-.568 0-1.037-.216-1.406-.65-.37-.433-.553-.983-.553-1.65 0-.755.213-1.367.64-1.832.395-.432.875-.65 1.445-.65.64 0 1.1.25 1.377.748h.02l.038-.65h.922zm-1.088 2.696v-.834c0-.317-.098-.588-.297-.815-.197-.227-.46-.34-.783-.34-.357 0-.652.15-.883.447-.23.298-.347.695-.347 1.193 0 .453.107.818.322 1.096.22.304.523.456.906.456.233 0 .444-.07.628-.21.186-.138.318-.327.395-.566.04-.118.06-.26.06-.428zM78.887 13.433h-.922l-.06-.718h-.02c-.33.55-.827.825-1.493.825-.465 0-.836-.146-1.115-.437-.33-.356-.494-.893-.494-1.61V8.72h1.047v2.6c0 .905.31 1.357.932 1.357.467 0 .79-.226.97-.68.046-.115.07-.248.07-.397V8.72h1.046v3.355c0 .446.013.9.04 1.358zM84.592 10.853c0 .188-.014.346-.04.475H81.41c.012.466.164.82.455 1.067.266.22.607.33 1.027.33.467 0 .89-.074 1.27-.223l.165.728c-.445.194-.973.29-1.58.29-.73 0-1.305-.214-1.723-.644-.416-.43-.625-1.007-.625-1.73 0-.712.192-1.304.58-1.776.41-.504.958-.756 1.65-.756.68 0 1.192.252 1.542.756.28.4.42.895.42 1.483zm-1-.27c.006-.312-.062-.58-.203-.806-.183-.292-.46-.437-.835-.437-.344 0-.62.142-.836.427-.175.227-.278.498-.31.815h2.182zM87.16 13.433h-1.047V6.556h1.047v6.877zM93.33 11.037c0 .725-.207 1.32-.62 1.785-.435.48-1.01.718-1.728.718-.693 0-1.244-.23-1.654-.69-.41-.458-.615-1.037-.615-1.735 0-.73.21-1.33.635-1.794s.994-.697 1.71-.697c.694 0 1.25.23 1.67.688.4.447.602 1.023.602 1.727zm-1.088.034c0-.434-.094-.807-.28-1.118-.22-.376-.534-.564-.94-.564-.422 0-.742.188-.96.564-.19.31-.282.69-.282 1.138 0 .435.094.808.28 1.12.228.375.544.563.952.563.4 0 .713-.19.94-.574.194-.318.29-.694.29-1.13zM101.584 10.853c0 .188-.014.346-.04.475h-3.142c.014.466.164.82.455 1.067.266.22.61.33 1.03.33.464 0 .888-.074 1.27-.223l.164.728c-.446.194-.972.29-1.58.29-.73 0-1.306-.214-1.722-.644-.418-.43-.625-1.007-.625-1.73 0-.712.193-1.304.582-1.776.406-.504.955-.756 1.648-.756.678 0 1.193.252 1.54.756.282.4.42.895.42 1.483zm-1-.27c.008-.312-.06-.58-.203-.806-.18-.29-.458-.437-.833-.437-.342 0-.62.142-.834.427-.174.227-.277.498-.31.815h2.18zM107.2 13.433h-1.048v-2.7c0-.832-.316-1.248-.95-1.248-.312 0-.563.114-.757.343s-.29.5-.29.808v2.796h-1.05v-3.366c0-.414-.012-.863-.037-1.35h.92l.05.738h.028c.123-.23.305-.418.543-.57.284-.175.6-.264.95-.264.44 0 .805.142 1.096.427.363.35.543.87.543 1.562v2.823zM115.756 10.853c0 .188-.014.346-.04.475h-3.142c.012.466.164.82.455 1.067.265.22.606.33 1.026.33.467 0 .89-.074 1.27-.223l.165.728c-.444.194-.972.29-1.58.29-.73 0-1.304-.214-1.722-.644-.416-.43-.625-1.007-.625-1.73 0-.712.193-1.304.582-1.776.408-.504.957-.756 1.648-.756.68 0 1.193.252 1.543.756.28.4.42.895.42 1.483zm-1-.27c.006-.312-.062-.58-.203-.806-.182-.29-.46-.437-.834-.437-.345 0-.622.142-.837.427-.174.227-.277.498-.31.815h2.183zM118.326 13.433h-1.05V6.556h1.05v6.877z"/></g></svg>